<svg xmlns="http://www.w3.org/2000/svg" xmlns:xlink="http://www.w3.org/1999/xlink" version="1.1" width="128" height="128" viewBox="0 0 100 100">


		<defs>
			<g id="background">
<path fill="url(#background-gradient)" stroke="none" d=" M 94.4 17.2 Q 91 13.8 86.2 13.8 L 25.35 13.8 Q 20.45 13.8 17.1 17.2 13.7 20.6 13.7 25.4 L 13.7 86.2 Q 13.7 91 17.1 94.4 20.45 97.8 25.35 97.8 L 86.2 97.8 Q 91 97.8 94.4 94.4 97.8 91 97.8 86.2 L 97.8 25.4 Q 97.8 20.6 94.4 17.2 Z"/>
</g><mask id="mask">
<path fill="#FFFFFF" stroke="none" d=" M 96 26.1 Q 96 21.8 92.9 18.7 89.8 15.6 85.5 15.6 L 26.05 15.6 Q 21.75 15.6 18.65 18.7 15.6 21.8 15.6 26.1 L 15.6 85.5 Q 15.6 89.9 18.65 92.9 21.75 96 26.05 96 L 85.5 96 Q 89.8 96 92.9 92.9 96 89.8 96 85.5 L 96 26.1 Z"/>
</mask><g id="bottom-1">
<path fill="#FFFFFF" fill-opacity="0.4" stroke="none" d=" M 86.5 21.15 Q 91.35 21.15 94.75 24.65 98.15 27.95 98.25 32.75 L 98.25 24.95 Q 98.25 20.05 94.75 16.65 91.35 13.15 86.5 13.15 L 25.05 13.15 Q 20.15 13.15 16.75 16.65 13.25 20.05 13.25 24.95 L 13.25 32.75 Q 13.35 27.95 16.75 24.65 20.15 21.15 25.05 21.15 L 86.5 21.15 Z"/>
</g><g id="bottom-2">
<path fill="#000000" fill-opacity="0.05" stroke="none" d=" M 86.5 98.4 Q 91.15 98.4 94.75 93.9 98.25 89.7 98.25 84.6 L 98.25 74.9 Q 98.15 79.6 94.75 82.9 91.35 86.4 86.5 86.4 L 25.05 86.4 Q 20.15 86.4 16.75 82.9 13.35 79.6 13.25 74.9 L 13.25 84.6 Q 13.25 89.7 16.75 93.9 20.35 98.4 25.05 98.4 L 86.5 98.4 Z"/>
</g><g id="bottom-3">
<path fill="#473342" fill-opacity="1" stroke="none" d=" M 6.9 16.5 Q 6.4 15.8 5.7 15.6 L 2.4 14.9 Q 1.6 14.8 0.9 15.2 0.2 15.7 0 16.5 -0.1 17.3 0.3 18 0.8 18.7 1.6 18.8 L 4.9 19.5 Q 5.7 19.7 6.4 19.2 7.1 18.7 7.2 17.9 7.4 17.1 6.9 16.5 M 11.9 11.9 Q 12.5 11.4 12.5 10.5 12.5 9.7 11.9 9.1 L 3.4 0.6 Q 2.8 0 2 0 1.2 0 0.6 0.6 0 1.2 0 2.1 0 2.9 0.6 3.5 L 9.1 11.9 Q 9.7 12.5 10.5 12.5 11.3 12.5 11.9 11.9 M 19.05 1.6 Q 18.95 0.8 18.15 0.3 17.5 -0.1 16.7 0 14.8 0.5 15.1 2.4 L 15.9 6.2 Q 16.1 7 16.7 7.5 17.4 8 18.15 7.8 18.95 7.7 19.45 6.9 19.95 6.2 19.75 5.4 L 19.05 1.6 M 100 26.1 Q 100 20.1 95.7 15.9 91.4 11.6 85.5 11.6 L 26.05 11.6 Q 20.05 11.6 15.9 15.9 11.6 20.1 11.6 26.1 L 11.6 85.5 Q 11.6 91.5 15.9 95.8 20.05 100 26.05 100 L 85.5 100 Q 91.4 100 95.7 95.8 100 91.5 100 85.5 L 100 26.1 M 85.5 15.6 Q 89.8 15.6 92.9 18.7 96 21.8 96 26.1 L 96 85.5 Q 96 89.8 92.9 92.9 89.8 96 85.5 96 L 26.05 96 Q 21.75 96 18.65 92.9 15.6 89.9 15.6 85.5 L 15.6 26.1 Q 15.6 21.8 18.65 18.7 21.75 15.6 26.05 15.6 L 85.5 15.6 Z"/>
</g>
			
	<linearGradient id="background-gradient" x1="0" y1="0" y2="1" x2="0">
		<stop stop-color="#ff44e0" offset="0%"/>
		<stop stop-color="#ff5b44" offset="100%"/>
	</linearGradient>

			
			
			<g transform="scale(3.3222586730647117) translate(5.05000114440918 0.10000008344650269)" id="picture"><path d="M.6 8.2l8 5.6c.4.3 1 .3 1.4.1s.7-.7.7-1.2v-2.3c.8 0 1.5.1 2 .1 3.6.4 4.5 2.5 4.5 2.6.2.5.7.9 1.3.9h.3c.6-.1 1.1-.7 1.1-1.4 0-5.4-4.6-8.2-9.2-9V1.4c0-.5-.3-1-.7-1.2-.4-.3-1-.3-1.4.1l-8 5.6C.2 6.1 0 6.5 0 7s.2.9.6 1.2zm8.2-5.6v1.8c0 .5.4.9.9 1 1.7.2 6.6 1.2 8 5-.9-.8-2.4-1.6-4.5-1.8-.9-.1-2-.2-3.3-.2-.3 0-.5.1-.7.3-.3.1-.4.4-.4.7v2.1L2.4 7l6.4-4.4zm10.6 19.2l-8-5.6c-.4-.3-1-.3-1.4-.1-.4.2-.7.7-.7 1.2v2.2c-.8 0-1.5-.1-2-.1-3.7-.4-4.6-2.4-4.6-2.5-.2-.6-.7-.9-1.3-.9h-.3c-.6.2-1.1.7-1.1 1.4 0 5.4 4.6 8.2 9.2 9v2.2c0 .5.3 1 .7 1.2.3.1.5.2.7.2.3 0 .6-.1.8-.3l8-5.6c.4-.3.6-.7.6-1.1 0-.5-.2-.9-.6-1.2zm-8.2 5.6v-1.8c0-.5-.4-.9-.9-1-1.7-.2-6.6-1.2-8-5 .9.8 2.4 1.6 4.5 1.8.9.1 2 .2 3.3.2.3 0 .5-.1.7-.3s.3-.4.3-.7v-2.1l6.3 4.4-6.2 4.5z"/></g>
			
	<linearGradient id="picture-gradient" x1="0" y1="0" y2="1" x2="0">
		<stop stop-color="#ffffff" offset="0%"/>
		<stop stop-color="#e5eff9" offset="100%"/>
	</linearGradient>

		</defs>

		

			<use xlink:href="#background" fill="url(#background-gradient)"/>

		

			<g mask="url(#mask)">
				<g transform="             translate(                                 61 61 )                             translate(0 0)  scale(0.5)                               translate(                                 -61 -61 )">
						<use xlink:href="#picture" fill="url(#picture-gradient)"/>
				</g>
			</g>

		<use xlink:href="#bottom-1"/><use xlink:href="#bottom-2"/><use xlink:href="#bottom-3"/>



	</svg>